<?xml version="1.0" encoding="utf-8"?>
<svg version="1.1" viewBox="0 0 232 232" enable-background="new 0 0 232 232" xmlns="http://www.w3.org/2000/svg">
  <g>
    <path d="m116,0c-64.065,0-116,51.935-116,116s51.935,116 116,116 116-51.935 116-116-51.935-116-116-116zm-73.75,149.5c-13.669,0-24.75-11.081-24.75-24.75s11.081-24.75 24.75-24.75 24.75,11.081 24.75,24.75-11.081,24.75-24.75,24.75zm32.5,49c-4.557,0-8.25-3.693-8.25-8.25s3.693-8.25 8.25-8.25 8.25,3.693 8.25,8.25-3.693,8.25-8.25,8.25zm8.75-116c-9.112,0-16.5-7.387-16.5-16.5s7.388-16.5 16.5-16.5 16.5,7.387 16.5,16.5-7.388,16.5-16.5,16.5zm57.25-49c4.557,0 8.25,3.693 8.25,8.25s-3.693,8.25-8.25,8.25-8.25-3.693-8.25-8.25 3.693-8.25 8.25-8.25zm-8.25,165c-9.112,0-16.5-7.387-16.5-16.5s7.388-16.5 16.5-16.5 16.5,7.387 16.5,16.5-7.388,16.5-16.5,16.5zm.5-66c-9.112,0-16.5-7.387-16.5-16.5s7.388-16.5 16.5-16.5 16.5,7.387 16.5,16.5-7.388,16.5-16.5,16.5zm48.75-50c-4.557,0-8.25-3.693-8.25-8.25s3.693-8.25 8.25-8.25 8.25,3.693 8.25,8.25-3.693,8.25-8.25,8.25zm25,50c-4.557,0-8.25-3.693-8.25-8.25 0-4.557 3.693-8.25 8.25-8.25s8.25,3.693 8.25,8.25c0,4.557-3.693,8.25-8.25,8.25z" style="fill: rgb(194, 156, 90);"/>
  </g>
  <g transform="matrix(1, 0, 0, 1, -358.981537, -125.271484)">
    <g>
      <path d="M505.687,224.47c-4.004-4.004-9.545-6.301-15.213-6.301s-11.221,2.298-15.225,6.301 c-4.004,4.018-6.301,9.556-6.301,15.225c0,5.669,2.298,11.222,6.301,15.226c4.004,4.004,9.556,6.3,15.225,6.3 s11.209-2.296,15.213-6.3c4.004-4.004,6.313-9.557,6.313-15.226C512,234.026,509.691,228.486,505.687,224.47z" style="fill: rgb(117, 74, 1);"/>
    </g>
  </g>
  <g transform="matrix(0.828023, 0, 0, 0.814576, -322.470703, -128.335449)" style="">
    <g>
      <path d="M505.687,224.47c-4.004-4.004-9.545-6.301-15.213-6.301s-11.221,2.298-15.225,6.301 c-4.004,4.018-6.301,9.556-6.301,15.225c0,5.669,2.298,11.222,6.301,15.226c4.004,4.004,9.556,6.3,15.225,6.3 s11.209-2.296,15.213-6.3c4.004-4.004,6.313-9.557,6.313-15.226C512,234.026,509.691,228.486,505.687,224.47z" style="fill: rgb(117, 74, 1);"/>
    </g>
  </g>
  <g transform="matrix(1.250858, 0, 0, 1.250858, -572.429443, -176.828842)" style="">
    <g>
      <path d="M505.687,224.47c-4.004-4.004-9.545-6.301-15.213-6.301s-11.221,2.298-15.225,6.301 c-4.004,4.018-6.301,9.556-6.301,15.225c0,5.669,2.298,11.222,6.301,15.226c4.004,4.004,9.556,6.3,15.225,6.3 s11.209-2.296,15.213-6.3c4.004-4.004,6.313-9.557,6.313-15.226C512,234.026,509.691,228.486,505.687,224.47z" style="fill: rgb(117, 74, 1);"/>
    </g>
  </g>
  <g transform="matrix(0.837303, 0, 0, 0.837303, -277.37677, -17.792616)" style="">
    <g>
      <path d="M505.687,224.47c-4.004-4.004-9.545-6.301-15.213-6.301s-11.221,2.298-15.225,6.301 c-4.004,4.018-6.301,9.556-6.301,15.225c0,5.669,2.298,11.222,6.301,15.226c4.004,4.004,9.556,6.3,15.225,6.3 s11.209-2.296,15.213-6.3c4.004-4.004,6.313-9.557,6.313-15.226C512,234.026,509.691,228.486,505.687,224.47z" style="fill: rgb(117, 74, 1);"/>
    </g>
  </g>
  <g transform="matrix(0.529316, 0, 0, 0.529316, -185.07756, 62.668869)" style="">
    <g>
      <path d="M505.687,224.47c-4.004-4.004-9.545-6.301-15.213-6.301s-11.221,2.298-15.225,6.301 c-4.004,4.018-6.301,9.556-6.301,15.225c0,5.669,2.298,11.222,6.301,15.226c4.004,4.004,9.556,6.3,15.225,6.3 s11.209-2.296,15.213-6.3c4.004-4.004,6.313-9.557,6.313-15.226C512,234.026,509.691,228.486,505.687,224.47z" style="fill: rgb(117, 74, 1);"/>
    </g>
  </g>
  <g transform="matrix(0.432004, 0, 0, 0.432004, -29.623768, -29.569094)" style="">
    <g>
      <path d="M505.687,224.47c-4.004-4.004-9.545-6.301-15.213-6.301s-11.221,2.298-15.225,6.301 c-4.004,4.018-6.301,9.556-6.301,15.225c0,5.669,2.298,11.222,6.301,15.226c4.004,4.004,9.556,6.3,15.225,6.3 s11.209-2.296,15.213-6.3c4.004-4.004,6.313-9.557,6.313-15.226C512,234.026,509.691,228.486,505.687,224.47z" style="fill: rgb(117, 74, 1);"/>
    </g>
  </g>
  <g transform="matrix(0.485793, 0, 0, 0.485793, -29.65086, 8.672318)" style="">
    <g>
      <path d="M505.687,224.47c-4.004-4.004-9.545-6.301-15.213-6.301s-11.221,2.298-15.225,6.301 c-4.004,4.018-6.301,9.556-6.301,15.225c0,5.669,2.298,11.222,6.301,15.226c4.004,4.004,9.556,6.3,15.225,6.3 s11.209-2.296,15.213-6.3c4.004-4.004,6.313-9.557,6.313-15.226C512,234.026,509.691,228.486,505.687,224.47z" style="fill: rgb(117, 74, 1);"/>
    </g>
  </g>
  <g transform="matrix(0.605455, 0, 0, 0.605455, -154.988144, -102.540825)" style="">
    <g>
      <path d="M505.687,224.47c-4.004-4.004-9.545-6.301-15.213-6.301s-11.221,2.298-15.225,6.301 c-4.004,4.018-6.301,9.556-6.301,15.225c0,5.669,2.298,11.222,6.301,15.226c4.004,4.004,9.556,6.3,15.225,6.3 s11.209-2.296,15.213-6.3c4.004-4.004,6.313-9.557,6.313-15.226C512,234.026,509.691,228.486,505.687,224.47z" style="fill: rgb(117, 74, 1);"/>
    </g>
  </g>
</svg>